# xmcd CD database file
#
# Track frame offsets:
#	150
#	15007
#	29669
#	42813
#	54936
#	69335
#	78727
#	90259
#	103403
#	119123
#	130206
#	141540
#	156666
#	168139
#	178773
#	190313
#	201983
#	213656
#	225344
#	243912
#	256180
#	268182
#	283224
#	298897
#	314329
#	326617
#
# Disc length: 4784 seconds
#
# Revision: 1
# Processed by: cddbd v1.5.1PL2 Copyright (c) Steve Scherf et al.
# Submitted via: CDex 1.51
#
DISCID=8c12ae1a
DTITLE=Various Artist - 101 GREATEST JAZZ Disc1 MONA LISA
DYEAR=1900
DGENRE=Jazz
TTITLE0=Mona Lisa
TTITLE1=Summertime
TTITLE2=On The Sunny Side Of The Street
TTITLE3=Night And Day
TTITLE4=Unforgettable
TTITLE5=Chicago
TTITLE6=That Old Black Magic
TTITLE7=I'm Thru With Love
TTITLE8=Stormy Weather
TTITLE9=Watermelon Man
TTITLE10=There's Got To Be A Change
TTITLE11=American Patrol
TTITLE12=Indiana
TTITLE13=When I Take My Sugar To Tea
TTITLE14=Caldonia
TTITLE15=Shoo Fly Pie And Apple Pan Dowdy
TTITLE16=Can't You See Darling
TTITLE17=Peetootie Pie
TTITLE18=As Time Goes By
TTITLE19=S'posin'
TTITLE20=Tin Tin Deo
TTITLE21=Lover Man
TTITLE22=Tuxedo Junction
TTITLE23=Solitude
TTITLE24=ThePeanut Vender
TTITLE25=Take Five
EXTD=
EXTT0=
EXTT1=
EXTT2=
EXTT3=
EXTT4=
EXTT5=
EXTT6=
EXTT7=
EXTT8=
EXTT9=
EXTT10=
EXTT11=
EXTT12=
EXTT13=
EXTT14=
EXTT15=
EXTT16=
EXTT17=
EXTT18=
EXTT19=
EXTT20=
EXTT21=
EXTT22=
EXTT23=
EXTT24=
EXTT25=
PLAYORDER=
